#!OML:ASF H:\Dans Jumps\Project 1\Capture day 1\Session 1\subject.ASF
:FULLY-SPECIFIED
:DEGREES
274
root 1.0413 22.7406 -0.910977 7.11404 0.46815 -1.14057
lowerback 6.69995 0.508904 0.200269
upperback 2.8749 0.714968 1.96997
thorax -0.81619 0.348121 1.86155
lowerneck -10.07 -0.229505 -1.71297
upperneck 24.8339 0.148428 -0.446791
head 9.47869 -0.13143 0.15509
rclavicle 8.34896e-015 1.31198e-014
rhumerus -17.3294 -19.142 -79.1934
rradius 24.8838
rwrist 38.0834
rhand -21.9345 -23.9495
rfingers 7.12502
rthumb 4.47198 -53.8823
lclavicle 8.34896e-015 1.31198e-014
lhumerus -21.5634 -3.88717 82.787
lradius 23.2907
lwrist 14.5493
lhand -23.6824 -8.55329
lfingers 7.12502
lthumb 2.7841 21.4083
rfemur -25.3546 -7.28207 21.2716
rtibia 45.7036
rfoot 6.66206 -0.820094
rtoes 8.37566
lfemur -33.1383 12.418 -19.0728
ltibia 65.0687
lfoot 15.2164 2.52571
ltoes 3.98882
275
root 1.0491 22.7269 -0.678741 6.68452 0.517925 -0.996107
lowerback 7.12208 0.483249 0.0738701
upperback 3.08737 0.674456 1.97581
thorax -0.831423 0.3261 1.93986
lowerneck -10.069 -0.228833 -1.74082
upperneck 24.9132 0.15374 -0.439146
head 9.50655 -0.131268 0.163067
rclavicle -3.37934e-015 -7.55382e-015
rhumerus -17.7107 -19.9344 -79.1966
rradius 24.5833
rwrist 38.5833
rhand -22.0372 -23.9848
rfingers 7.12502
rthumb 4.37281 -53.9196
lclavicle -3.37934e-015 -7.55382e-015
lhumerus -21.7475 -3.31206 82.8384
lradius 22.9147
lwrist 14.4574
lhand -23.7975 -8.79331
lfingers 7.12502
lthumb 2.67291 21.1697
rfemur -25.6078 -7.13745 21.1688
rtibia 44.5222
rfoot 6.45243 -0.556994
rtoes 7.77606
lfemur -33.5854 12.0972 -19.3385
ltibia 63.8745
lfoot 14.6867 2.15721
ltoes 3.99926
276
root 1.05687 22.6986 -0.44352 6.23968 0.571577 -0.876691
lowerback 7.53235 0.464345 -0.0184922
upperback 3.29052 0.644541 1.99194
thorax -0.849095 0.309457 2.00926
lowerneck -10.0392 -0.23791 -1.76875
upperneck 24.996 0.150291 -0.452771
head 9.53032 -0.13739 0.162769
rclavicle -2.5842e-015 8.74653e-015
rhumerus -18.1047 -20.6793 -79.1618
rradius 24.2726
rwrist 39.1506
rhand -22.1394 -24.0533
rfingers 7.12502
rthumb 4.27419 -53.9901
lclavicle -2.5842e-015 8.74653e-015
lhumerus -21.9357 -2.81684 82.8898
lradius 22.5753
lwrist 14.411
lhand -23.907 -9.05261
lfingers 7.12502
lthumb 2.56719 20.9117
rfemur -25.8092 -6.98926 21.0766
rtibia 43.2899
rfoot 6.24629 -0.319469
rtoes 7.19721
lfemur -33.9106 11.7938 -19.5645
ltibia 62.4585
lfoot 14.1263 1.79089
ltoes 3.87912
277
root 1.06495 22.657 -0.204536 5.81275 0.617427 -0.77808
lowerback 7.88718 0.454291 -0.0802126
upperback 3.47205 0.627897 2.01699
thorax -0.858105 0.29959 2.07007
lowerneck -9.98161 -0.251072 -1.78967
upperneck 25.0965 0.146375 -0.494014
head 9.55522 -0.146092 0.151683
rclavicle -2.18663e-015 -1.03368e-014
rhumerus -18.5244 -21.3606 -79.088
rradius 23.9582
rwrist 39.7299
rhand -22.2505 -24.1342
rfingers 7.12502
rthumb 4.16687 -54.0732
lclavicle -2.18663e-015 -1.03368e-014
lhumerus -22.1498 -2.40423 82.9446
lradius 22.2914
lwrist 14.3881
lhand -23.963 -9.22104
lfingers 7.12502
lthumb 2.51307 20.7439
rfemur -25.9962 -6.83666 20.9932
rtibia 42.0133
rfoot 6.04426 -0.129514
rtoes 6.68755
lfemur -34.149 11.5237 -19.7664
ltibia 60.8378
lfoot 13.5372 1.45672
ltoes 3.59779
